<svg width="20" height="20" viewBox="0 0 20 20" fill="none" xmlns="http://www.w3.org/2000/svg">
<path fill-rule="evenodd" clip-rule="evenodd" d="M8.96447 2.29784C9.90215 1.36016 11.1739 0.833374 12.5 0.833374H15C15.4602 0.833374 15.8333 1.20647 15.8333 1.66671V5.00004C15.8333 5.46028 15.4602 5.83337 15 5.83337H12.5V7.50004H15C15.2566 7.50004 15.4989 7.61827 15.6568 7.82053C15.8148 8.02279 15.8707 8.28654 15.8085 8.53549L14.9751 11.8688C14.8824 12.2398 14.5491 12.5 14.1667 12.5H12.5V18.3334C12.5 18.7936 12.1269 19.1667 11.6667 19.1667H8.33333C7.8731 19.1667 7.5 18.7936 7.5 18.3334V12.5H5.83333C5.3731 12.5 5 12.1269 5 11.6667V8.33337C5 7.87314 5.3731 7.50004 5.83333 7.50004H7.5V5.83337C7.5 4.50729 8.02678 3.23552 8.96447 2.29784ZM12.5 2.50004C11.6159 2.50004 10.7681 2.85123 10.143 3.47635C9.51786 4.10147 9.16667 4.94932 9.16667 5.83337V8.33337C9.16667 8.79361 8.79357 9.16671 8.33333 9.16671H6.66667V10.8334H8.33333C8.79357 10.8334 9.16667 11.2065 9.16667 11.6667V17.5H10.8333V11.6667C10.8333 11.2065 11.2064 10.8334 11.6667 10.8334H13.516L13.9327 9.16671H11.6667C11.2064 9.16671 10.8333 8.79361 10.8333 8.33337V5.83337C10.8333 5.39135 11.0089 4.96742 11.3215 4.65486C11.634 4.3423 12.058 4.16671 12.5 4.16671H14.1667V2.50004H12.5Z" fill="#003333"/>
</svg>
