<svg width="20" height="20" viewBox="0 0 20 20" fill="none" xmlns="http://www.w3.org/2000/svg">
<path fill-rule="evenodd" clip-rule="evenodd" d="M5.83325 2.50004C3.9923 2.50004 2.49992 3.99242 2.49992 5.83337V14.1667C2.49992 16.0077 3.9923 17.5 5.83325 17.5H14.1666C16.0075 17.5 17.4999 16.0077 17.4999 14.1667V5.83337C17.4999 3.99242 16.0075 2.50004 14.1666 2.50004H5.83325ZM0.833252 5.83337C0.833252 3.07195 3.07183 0.833374 5.83325 0.833374H14.1666C16.928 0.833374 19.1666 3.07195 19.1666 5.83337V14.1667C19.1666 16.9281 16.928 19.1667 14.1666 19.1667H5.83325C3.07183 19.1667 0.833252 16.9281 0.833252 14.1667V5.83337Z" fill="#003333"/>
<path fill-rule="evenodd" clip-rule="evenodd" d="M10.4028 7.49095C9.88261 7.41382 9.35138 7.50267 8.88463 7.74485C8.41788 7.98704 8.03938 8.37024 7.80297 8.83994C7.56656 9.30964 7.48427 9.84192 7.56781 10.3611C7.65135 10.8802 7.89646 11.3599 8.26829 11.7317C8.64012 12.1035 9.11972 12.3486 9.63888 12.4322C10.158 12.5157 10.6903 12.4334 11.16 12.197C11.6297 11.9606 12.0129 11.5821 12.2551 11.1153C12.4973 10.6486 12.5861 10.1174 12.509 9.5972C12.4303 9.06663 12.1831 8.57542 11.8038 8.19614C11.4245 7.81687 10.9333 7.56963 10.4028 7.49095ZM8.11701 6.26548C8.89493 5.86184 9.78031 5.71376 10.6472 5.84231C11.5315 5.97344 12.3502 6.38551 12.9823 7.01763C13.6145 7.64976 14.0265 8.46844 14.1577 9.35273C14.2862 10.2197 14.1381 11.105 13.7345 11.883C13.3308 12.6609 12.6922 13.2917 11.9093 13.6857C11.1265 14.0797 10.2394 14.2169 9.3741 14.0777C8.50883 13.9384 7.70949 13.5299 7.08978 12.9102C6.47007 12.2905 6.06154 11.4911 5.92231 10.6259C5.78307 9.7606 5.92022 8.87345 6.31424 8.09062C6.70827 7.30779 7.3391 6.66913 8.11701 6.26548Z" fill="#003333"/>
</svg>
