<svg width="20" height="20" viewBox="0 0 20 20" fill="none" xmlns="http://www.w3.org/2000/svg">
<path fill-rule="evenodd" clip-rule="evenodd" d="M13.3333 7.50004C12.2282 7.50004 11.1684 7.93903 10.387 8.72043C9.60557 9.50183 9.16658 10.5616 9.16658 11.6667V16.6667H10.8333V11.6667C10.8333 11.0037 11.0966 10.3678 11.5655 9.89894C12.0343 9.4301 12.6702 9.16671 13.3333 9.16671C13.9963 9.16671 14.6322 9.4301 15.101 9.89894C15.5699 10.3678 15.8333 11.0037 15.8333 11.6667V16.6667H17.4999V11.6667C17.4999 10.5616 17.0609 9.50183 16.2795 8.72043C15.4981 7.93903 14.4383 7.50004 13.3333 7.50004ZM13.3333 5.83337C11.7862 5.83337 10.3024 6.44796 9.20846 7.54192C8.1145 8.63588 7.49992 10.1196 7.49992 11.6667V17.5C7.49992 17.9603 7.87301 18.3334 8.33325 18.3334H11.6666C12.1268 18.3334 12.4999 17.9603 12.4999 17.5V11.6667C12.4999 11.4457 12.5877 11.2337 12.744 11.0775C12.9003 10.9212 13.1122 10.8334 13.3333 10.8334C13.5543 10.8334 13.7662 10.9212 13.9225 11.0775C14.0788 11.2337 14.1666 11.4457 14.1666 11.6667V17.5C14.1666 17.9603 14.5397 18.3334 14.9999 18.3334H18.3333C18.7935 18.3334 19.1666 17.9603 19.1666 17.5V11.6667C19.1666 10.1196 18.552 8.63588 17.458 7.54192C16.3641 6.44796 14.8803 5.83337 13.3333 5.83337Z" fill="#003333"/>
<path fill-rule="evenodd" clip-rule="evenodd" d="M0.833252 7.50004C0.833252 7.0398 1.20635 6.66671 1.66659 6.66671H4.99992C5.46016 6.66671 5.83325 7.0398 5.83325 7.50004V17.5C5.83325 17.9603 5.46016 18.3334 4.99992 18.3334H1.66659C1.20635 18.3334 0.833252 17.9603 0.833252 17.5V7.50004ZM2.49992 8.33337V16.6667H4.16658V8.33337H2.49992Z" fill="#003333"/>
<path fill-rule="evenodd" clip-rule="evenodd" d="M3.33325 2.50004C2.87301 2.50004 2.49992 2.87314 2.49992 3.33337C2.49992 3.79361 2.87301 4.16671 3.33325 4.16671C3.79349 4.16671 4.16658 3.79361 4.16658 3.33337C4.16658 2.87314 3.79349 2.50004 3.33325 2.50004ZM0.833252 3.33337C0.833252 1.95266 1.95254 0.833374 3.33325 0.833374C4.71396 0.833374 5.83325 1.95266 5.83325 3.33337C5.83325 4.71409 4.71396 5.83337 3.33325 5.83337C1.95254 5.83337 0.833252 4.71409 0.833252 3.33337Z" fill="#003333"/>
</svg>
