<svg width="17" height="16" viewBox="0 0 17 16" fill="none" xmlns="http://www.w3.org/2000/svg">
<path fill-rule="evenodd" clip-rule="evenodd" d="M12.2018 1.99999C11.4654 1.99999 10.8685 2.59694 10.8685 3.33332C10.8685 4.0697 11.4654 4.66666 12.2018 4.66666C12.9382 4.66666 13.5352 4.0697 13.5352 3.33332C13.5352 2.59694 12.9382 1.99999 12.2018 1.99999ZM9.53516 3.33332C9.53516 1.86056 10.7291 0.666656 12.2018 0.666656C13.6746 0.666656 14.8685 1.86056 14.8685 3.33332C14.8685 4.80608 13.6746 5.99999 12.2018 5.99999C10.7291 5.99999 9.53516 4.80608 9.53516 3.33332Z" fill="#003333"/>
<path fill-rule="evenodd" clip-rule="evenodd" d="M4.20182 6.66666C3.46544 6.66666 2.86849 7.26361 2.86849 7.99999C2.86849 8.73637 3.46544 9.33332 4.20182 9.33332C4.9382 9.33332 5.53516 8.73637 5.53516 7.99999C5.53516 7.26361 4.9382 6.66666 4.20182 6.66666ZM1.53516 7.99999C1.53516 6.52723 2.72906 5.33332 4.20182 5.33332C5.67458 5.33332 6.86849 6.52723 6.86849 7.99999C6.86849 9.47275 5.67458 10.6667 4.20182 10.6667C2.72906 10.6667 1.53516 9.47275 1.53516 7.99999Z" fill="#003333"/>
<path fill-rule="evenodd" clip-rule="evenodd" d="M12.2018 11.3333C11.4654 11.3333 10.8685 11.9303 10.8685 12.6667C10.8685 13.403 11.4654 14 12.2018 14C12.9382 14 13.5352 13.403 13.5352 12.6667C13.5352 11.9303 12.9382 11.3333 12.2018 11.3333ZM9.53516 12.6667C9.53516 11.1939 10.7291 9.99999 12.2018 9.99999C13.6746 9.99999 14.8685 11.1939 14.8685 12.6667C14.8685 14.1394 13.6746 15.3333 12.2018 15.3333C10.7291 15.3333 9.53516 14.1394 9.53516 12.6667Z" fill="#003333"/>
<path fill-rule="evenodd" clip-rule="evenodd" d="M5.6235 8.90701C5.80887 8.58889 6.21704 8.48128 6.53516 8.66666L10.5352 11C10.8533 11.1854 10.9609 11.5935 10.7755 11.9116C10.5901 12.2298 10.182 12.3374 9.86385 12.152L5.86385 9.81867C5.54573 9.63329 5.43812 9.22513 5.6235 8.90701Z" fill="#003333"/>
<path fill-rule="evenodd" clip-rule="evenodd" d="M10.7749 4.08818C10.9605 4.40618 10.8532 4.81441 10.5352 4.99999L6.54053 7.48491C6.22253 7.67048 5.8143 7.56313 5.62872 7.24513C5.44314 6.92713 5.55049 6.5189 5.86849 6.33332L9.86312 3.84841C10.1811 3.66283 10.5894 3.77018 10.7749 4.08818Z" fill="#003333"/>
</svg>
