<svg width="14" height="15" viewBox="0 0 14 15" fill="none" xmlns="http://www.w3.org/2000/svg">
<path fill-rule="evenodd" clip-rule="evenodd" d="M7.46176 4.12074V5.04824C11.5451 5.63157 13.2951 8.54824 13.8784 11.4649C12.4201 9.42324 10.3784 8.4899 7.46176 8.4899V9.4699C7.46176 9.98907 6.83176 10.2516 6.46426 9.88407L3.78676 7.20657C3.55926 6.97907 3.55926 6.61157 3.78676 6.38407L6.46426 3.70657C6.83176 3.33907 7.46176 3.60157 7.46176 4.12074ZM2.90603 3.77074C3.29686 3.37991 3.96186 3.65991 3.96186 4.20824C3.96186 4.37157 3.8977 4.52907 3.78103 4.64574L1.62853 6.79824L3.78103 8.95074C3.8977 9.06741 3.96186 9.22491 3.96186 9.38824C3.96186 9.93657 3.29686 10.2166 2.90603 9.81991L0.292695 7.20657C0.0651953 6.97907 0.0651953 6.61157 0.292695 6.38407L2.90603 3.77074Z" fill="#73738D"/>
</svg>
