<svg width="26" height="26" fill="none" xmlns="http://www.w3.org/2000/svg"><path fill-rule="evenodd" clip-rule="evenodd" d="M10.248 17.162v-8.51c0-1.17.946-2.127 2.127-2.127h9.573V5.461c0-1.17-.957-2.127-2.127-2.127H4.929c-1.18 0-2.127.957-2.127 2.127v14.892c0 1.17.946 2.127 2.127 2.127h14.892c1.17 0 2.127-.957 2.127-2.127v-1.064h-9.573a2.127 2.127 0 0 1-2.127-2.127zm3.19-8.51c-.584 0-1.063.48-1.063 1.064v6.382c0 .585.479 1.064 1.064 1.064h9.573v-8.51h-9.573zm1.596 4.255c0 .883.713 1.596 1.596 1.596.883 0 1.595-.713 1.595-1.596 0-.883-.712-1.595-1.595-1.595s-1.596.712-1.596 1.595z" fill="#31BFBF"/></svg>