<svg width="15" height="15" fill="none" xmlns="http://www.w3.org/2000/svg"><path fill-rule="evenodd" clip-rule="evenodd" d="M2.349 4.012l4.608-2.426c.339-.181.747-.181 1.085 0l4.608 2.426a.728.728 0 0 1-.332 1.37h-9.63a.73.73 0 0 1-.73-.728c0-.268.152-.519.39-.642zm.776 3.413v2.333a.874.874 0 1 0 1.75 0V7.425a.874.874 0 1 0-1.75 0zm3.5 0v2.333a.874.874 0 1 0 1.75 0V7.425a.874.874 0 1 0-1.75 0zm5.541 6.125H2.833a.874.874 0 1 1 0-1.75h9.333a.874.874 0 1 1 0 1.75zm-2.041-6.125v2.333a.874.874 0 1 0 1.75 0V7.425a.874.874 0 1 0-1.75 0z" fill="#73738D"/></svg>