<svg width="14" height="15" fill="currentColor" xmlns="http://www.w3.org/2000/svg"><path fill-rule="evenodd" clip-rule="evenodd" d="M5.833 8.083h-3.5A.585.585 0 0 1 1.75 7.5V2.833c0-.32.263-.583.583-.583h3.5c.321 0 .584.263.584.583V7.5c0 .32-.263.583-.584.583zm0 4.667h-3.5a.585.585 0 0 1-.583-.583V9.833c0-.32.263-.583.583-.583h3.5c.321 0 .584.262.584.583v2.334c0 .32-.263.583-.584.583zm2.334 0h3.5c.32 0 .583-.262.583-.583V7.5a.585.585 0 0 0-.583-.583h-3.5a.585.585 0 0 0-.584.583v4.667c0 .32.263.583.584.583zm-.584-7.583V2.833c0-.32.263-.583.584-.583h3.5c.32 0 .583.263.583.583v2.334c0 .32-.262.583-.583.583h-3.5a.585.585 0 0 1-.584-.583z" fill="currentColor"/></svg>