<svg width="15" height="15" fill="none" xmlns="http://www.w3.org/2000/svg"><path fill-rule="evenodd" clip-rule="evenodd" d="M7.5 3.417v1.166h4.667a1.17 1.17 0 0 1 1.167 1.167v5.833a1.17 1.17 0 0 1-1.167 1.167H2.834a1.17 1.17 0 0 1-1.167-1.167V3.417A1.17 1.17 0 0 1 2.834 2.25h3.5A1.17 1.17 0 0 1 7.5 3.417zm-4.666 8.166H4v-1.166H2.834v1.166zM4 9.25H2.834V8.083H4V9.25zM2.834 6.917H4V5.75H2.834v1.167zM4 4.583H2.834V3.417H4v1.166zm1.167 7h1.167v-1.166H5.167v1.166zM6.334 9.25H5.167V8.083h1.167V9.25zM5.167 6.917h1.167V5.75H5.167v1.167zm1.167-2.334H5.167V3.417h1.167v1.166zm1.166 7h4.084c.32 0 .583-.262.583-.583V6.333a.585.585 0 0 0-.583-.583H7.5v1.167h1.167v1.166H7.5V9.25h1.167v1.167H7.5v1.166zM11 6.917H9.834v1.166H11V6.917zM9.834 9.25H11v1.167H9.834V9.25z" fill="#73738D"/></svg>