<svg width="15" height="15" fill="none" xmlns="http://www.w3.org/2000/svg"><path fill-rule="evenodd" clip-rule="evenodd" d="M12.225 2.25h-9.45a.523.523 0 0 0-.525.525v9.45c0 .233.233.525.525.525h9.45c.233 0 .525-.292.525-.525v-9.45c0-.292-.292-.525-.525-.525zM5.75 4.583H4.583V5.75H5.75V4.583zm4.667 0h-3.5V5.75h3.5V4.583zm0 2.334h-3.5v1.166h3.5V6.917zm-3.5 2.333h3.5v1.167h-3.5V9.25zM4.583 6.917H5.75v1.166H4.583V6.917zM5.75 9.25H4.583v1.167H5.75V9.25zm-2.333 2.333h8.166V3.417H3.417v8.166z" fill="#73738D"/></svg>