<svg width="15" height="15" fill="none" xmlns="http://www.w3.org/2000/svg"><path fill-rule="evenodd" clip-rule="evenodd" d="M3.417 2.833a.583.583 0 0 0-.583.583v8.167a.583.583 0 0 0 .583.583H5.75a.583.583 0 0 1 0 1.167H3.417a1.75 1.75 0 0 1-1.75-1.75V3.417a1.75 1.75 0 0 1 1.75-1.75H5.75a.583.583 0 0 1 0 1.166H3.417zM9.42 4.17a.583.583 0 0 1 .826 0l2.916 2.918a.583.583 0 0 1 0 .824l-2.916 2.917a.583.583 0 1 1-.825-.825L11.925 7.5 9.421 4.996a.583.583 0 0 1 0-.825z" fill="#73738D"/><path fill-rule="evenodd" clip-rule="evenodd" d="M5.167 7.5c0-.322.261-.583.583-.583h7a.583.583 0 1 1 0 1.166h-7a.583.583 0 0 1-.583-.583z" fill="#73738D"/></svg>