<svg width="15" height="15" fill="none" xmlns="http://www.w3.org/2000/svg"><path fill-rule="evenodd" clip-rule="evenodd" d="M6.91 5.167a1.748 1.748 0 0 1-3.494 0 1.748 1.748 0 1 1 3.495 0zm4.667 0a1.748 1.748 0 0 1-3.494 0 1.748 1.748 0 1 1 3.494 0zm-6.41 2.916c-1.36 0-4.084.683-4.084 2.042V11c0 .32.263.583.583.583h7c.321 0 .584-.262.584-.583v-.875c0-1.36-2.724-2.042-4.084-2.042zm4.1.03c.204-.018.397-.03.566-.03 1.36 0 4.083.683 4.083 2.042V11c0 .32-.262.583-.583.583H10.31c.064-.18.105-.379.105-.583v-.875c0-.858-.46-1.505-1.126-1.99a.071.071 0 0 1-.005-.006c-.005-.006-.01-.013-.018-.017z" fill="#73738D"/></svg>