<svg width="15" height="15" fill="none" xmlns="http://www.w3.org/2000/svg"><path fill-rule="evenodd" clip-rule="evenodd" d="M11.877 7.5c0 .198-.018.385-.041.572l1.23.962c.111.087.14.245.07.373l-1.166 2.019c-.07.128-.222.18-.356.128l-1.452-.583a4.48 4.48 0 0 1-.986.571l-.222 1.546a.284.284 0 0 1-.286.245H6.335a.284.284 0 0 1-.286-.245l-.222-1.546a4.262 4.262 0 0 1-.985-.571l-1.453.583a.293.293 0 0 1-.356-.128L1.867 9.407a.294.294 0 0 1 .07-.373l1.23-.963a4.627 4.627 0 0 1-.04-.571c0-.193.017-.385.04-.572l-1.23-.962a.288.288 0 0 1-.07-.374l1.166-2.018c.07-.128.222-.18.356-.128l1.453.583c.303-.228.63-.426.985-.572l.222-1.545a.284.284 0 0 1 .286-.245h2.333c.146 0 .269.105.286.244l.222 1.546c.356.146.682.339.986.572l1.452-.583a.293.293 0 0 1 .356.128l1.167 2.018c.07.129.04.286-.07.374l-1.231.962c.023.187.04.373.04.572zm-6.417 0c0 1.126.916 2.041 2.042 2.041A2.044 2.044 0 0 0 9.543 7.5a2.044 2.044 0 0 0-2.041-2.042A2.044 2.044 0 0 0 5.46 7.5z" fill="#73738D"/></svg>